<svg xmlns="http://www.w3.org/2000/svg" xmlns:xlink="http://www.w3.org/1999/xlink" contentStyleType="text/css" height="436px" preserveAspectRatio="none" style="width:571px;height:436px;background:#FFFFFF;" version="1.1" viewBox="0 0 571 436" width="571px" zoomAndPan="magnify"><title>Diagrama de Arquitectura - Sistema de Reservas</title><defs/><g><text fill="#000000" font-family="sans-serif" font-size="14" font-weight="bold" lengthAdjust="spacing" textLength="385.7383" x="85.6309" y="22.9951">Diagrama de Arquitectura - Sistema de Reservas</text><!--cluster Cliente (Frontend)--><g id="cluster_Cliente (Frontend)"><polygon fill="none" points="16,53.2969,26,43.2969,237,43.2969,237,135.2969,227,145.2969,16,145.2969,16,53.2969" style="stroke:#181818;stroke-width:1;"/><line style="stroke:#181818;stroke-width:1;" x1="227" x2="237" y1="53.2969" y2="43.2969"/><line style="stroke:#181818;stroke-width:1;" x1="16" x2="227" y1="53.2969" y2="53.2969"/><line style="stroke:#181818;stroke-width:1;" x1="227" x2="227" y1="53.2969" y2="145.2969"/><text fill="#000000" font-family="sans-serif" font-size="14" font-weight="bold" lengthAdjust="spacing" textLength="145.4209" x="49.7896" y="69.292">Cliente (Frontend)</text></g><!--cluster Servidor (Backend)--><g id="cluster_Servidor (Backend)"><polygon fill="none" points="72,204.2969,82,194.2969,554,194.2969,554,409.2969,544,419.2969,72,419.2969,72,204.2969" style="stroke:#181818;stroke-width:1;"/><line style="stroke:#181818;stroke-width:1;" x1="544" x2="554" y1="204.2969" y2="194.2969"/><line style="stroke:#181818;stroke-width:1;" x1="72" x2="544" y1="204.2969" y2="204.2969"/><line style="stroke:#181818;stroke-width:1;" x1="544" x2="544" y1="204.2969" y2="419.2969"/><text fill="#000000" font-family="sans-serif" font-size="14" font-weight="bold" lengthAdjust="spacing" textLength="151.833" x="233.0835" y="220.292">Servidor (Backend)</text></g><!--entity Frontend--><g id="elem_Frontend"><rect fill="#F1F1F1" height="46.2969" rx="2.5" ry="2.5" style="stroke:#181818;stroke-width:0.5;" width="128.9561" x="61.5" y="83.2969"/><rect fill="#F1F1F1" height="10" style="stroke:#181818;stroke-width:0.5;" width="15" x="170.4561" y="88.2969"/><rect fill="#F1F1F1" height="2" style="stroke:#181818;stroke-width:0.5;" width="4" x="168.4561" y="90.2969"/><rect fill="#F1F1F1" height="2" style="stroke:#181818;stroke-width:0.5;" width="4" x="168.4561" y="94.2969"/><text fill="#000000" font-family="sans-serif" font-size="14" lengthAdjust="spacing" textLength="88.9561" x="76.5" y="116.292">HTML/CSS/JS</text></g><!--entity API--><g id="elem_API"><rect fill="#F1F1F1" height="46.2969" rx="2.5" ry="2.5" style="stroke:#181818;stroke-width:0.5;" width="172.959" x="197.5" y="234.2969"/><rect fill="#F1F1F1" height="10" style="stroke:#181818;stroke-width:0.5;" width="15" x="350.459" y="239.2969"/><rect fill="#F1F1F1" height="2" style="stroke:#181818;stroke-width:0.5;" width="4" x="348.459" y="241.2969"/><rect fill="#F1F1F1" height="2" style="stroke:#181818;stroke-width:0.5;" width="4" x="348.459" y="245.2969"/><text fill="#000000" font-family="sans-serif" font-size="14" lengthAdjust="spacing" textLength="132.959" x="212.5" y="267.292">Express (API REST)</text></g><!--entity DB--><g id="elem_DB"><rect fill="#F1F1F1" height="46.2969" rx="2.5" ry="2.5" style="stroke:#181818;stroke-width:0.5;" width="223.9277" x="185" y="357.2969"/><rect fill="#F1F1F1" height="10" style="stroke:#181818;stroke-width:0.5;" width="15" x="388.9277" y="362.2969"/><rect fill="#F1F1F1" height="2" style="stroke:#181818;stroke-width:0.5;" width="4" x="386.9277" y="364.2969"/><rect fill="#F1F1F1" height="2" style="stroke:#181818;stroke-width:0.5;" width="4" x="386.9277" y="368.2969"/><text fill="#000000" font-family="sans-serif" font-size="14" lengthAdjust="spacing" textLength="183.9277" x="200" y="390.292">Base de Datos (MongoDB)</text></g><!--link Frontend to API--><g id="link_Frontend_API"><path d="M81.91,129.3669 C61.47,142.6369 44.22,160.3869 57,178.2969 C88.78,222.8169 141.7218,241.1997 191.5418,249.5097 " fill="none" id="Frontend-to-API" style="stroke:#181818;stroke-width:1;"/><polygon fill="#181818" points="197.46,250.4969,189.2408,245.0706,192.5281,249.6742,187.9245,252.9616,197.46,250.4969" style="stroke:#181818;stroke-width:1;"/><text fill="#000000" font-family="sans-serif" font-size="13" lengthAdjust="spacing" textLength="249.4312" x="58" y="174.3638">Peticiones HTTP (CRUD/Autenticaci&#243;n)</text></g><!--link API to Frontend--><g id="link_API_Frontend"><path d="M300.85,233.9569 C314.19,213.3269 328.11,182.7469 312,161.2969 C297.21,141.5969 244.3234,127.893 196.7534,118.803 " fill="none" id="API-to-Frontend" style="stroke:#181818;stroke-width:1;"/><polygon fill="#181818" points="190.86,117.6769,198.9493,123.295,195.7711,118.6153,200.4508,115.4372,190.86,117.6769" style="stroke:#181818;stroke-width:1;"/><text fill="#000000" font-family="sans-serif" font-size="13" lengthAdjust="spacing" textLength="111.0776" x="319" y="174.3638">Respuestas&#160;JSON</text></g><!--link API to DB--><g id="link_API_DB"><path d="M197.26,266.6769 C145.38,275.3469 94.13,292.7369 120,327.2969 C129.02,339.3469 149.4925,347.9742 179.1125,356.0742 " fill="none" id="API-to-DB" style="stroke:#181818;stroke-width:1;"/><polygon fill="#181818" points="184.9,357.6569,177.2739,351.4245,180.0771,356.338,175.1636,359.1412,184.9,357.6569" style="stroke:#181818;stroke-width:1;"/><text fill="#000000" font-family="sans-serif" font-size="13" lengthAdjust="spacing" textLength="229.7471" x="121" y="323.3638">Consultas/Actualizaciones de datos</text></g><!--link DB to API--><g id="link_DB_API"><path d="M333.97,357.2869 C350.23,344.6069 363.85,327.7469 355,310.2969 C348.85,298.1669 343.2748,291.6709 332.2548,283.8109 " fill="none" id="DB-to-API" style="stroke:#181818;stroke-width:1;"/><polygon fill="#181818" points="327.37,280.3269,332.3745,288.8095,331.4407,283.2303,337.0199,282.2965,327.37,280.3269" style="stroke:#181818;stroke-width:1;"/><text fill="#000000" font-family="sans-serif" font-size="13" lengthAdjust="spacing" textLength="142.5493" x="358" y="323.3638">Respuestas con datos</text></g><!--SRC=[TP31IiGm48RlUOgXf_PGUj-3q3OhwxAhfQaFCBJ34kmcDKb55D_5T_0DzCMSk5iLmLp2CDzyypD1Xv50QZmuF28C1AMxdtMWFimE8GUbVQ1JfoLFxW6z4CPocTIZ9XC8qajd-JT3bi2p07wzFKxMS1EIJRVV5RLInLObW1uMLhmi6iLIFLW7QONztJ-QzUFao7j8o-OAshNgiYyRLt_92Zt5j1A3PNvlpS7AweJBAgvT8a2UNqG3hA2Xe7lD1W-RhciWhTjRMPGpOzp0Nd-ycKn4Dix8YaTgQ_my1lH5oRV2KJ_XsS3BXxXSCFUpWgytpUHvWDEQCx4OloFzvjvVj-hc-XC0]--></g></svg>
