<svg xmlns="http://www.w3.org/2000/svg" xmlns:xlink="http://www.w3.org/1999/xlink" contentStyleType="text/css" height="301px" preserveAspectRatio="none" style="width:198px;height:301px;background:#FFFFFF;" version="1.1" viewBox="0 0 198 301" width="198px" zoomAndPan="magnify"><defs/><g><!--class Reserva--><g id="elem_Reserva"><rect codeLine="1" fill="#F1F1F1" height="96.8906" id="Reserva" rx="2.5" ry="2.5" style="stroke:#181818;stroke-width:0.5;" width="184.2246" x="7" y="7"/><ellipse cx="66.4282" cy="23" fill="#ADD1B2" rx="11" ry="11" style="stroke:#181818;stroke-width:1;"/><path d="M69.397,28.6406 Q68.8188,28.9375 68.1782,29.0781 Q67.5376,29.2344 66.8345,29.2344 Q64.3345,29.2344 63.0063,27.5938 Q61.6938,25.9375 61.6938,22.8125 Q61.6938,19.6875 63.0063,18.0313 Q64.3345,16.375 66.8345,16.375 Q67.5376,16.375 68.1782,16.5313 Q68.8345,16.6875 69.397,16.9844 L69.397,19.7031 Q68.772,19.125 68.1782,18.8594 Q67.5845,18.5781 66.9595,18.5781 Q65.6157,18.5781 64.9282,19.6563 Q64.2407,20.7188 64.2407,22.8125 Q64.2407,24.9063 64.9282,25.9844 Q65.6157,27.0469 66.9595,27.0469 Q67.5845,27.0469 68.1782,26.7813 Q68.772,26.5 69.397,25.9219 L69.397,28.6406 Z " fill="#000000"/><text fill="#000000" font-family="sans-serif" font-size="14" lengthAdjust="spacing" textLength="56.8682" x="86.9282" y="27.8467">Reserva</text><line style="stroke:#181818;stroke-width:0.5;" x1="8" x2="190.2246" y1="39" y2="39"/><rect fill="none" height="6" style="stroke:#C82930;stroke-width:1;" width="6" x="15" y="49.6484"/><text fill="#000000" font-family="sans-serif" font-size="14" lengthAdjust="spacing" textLength="107.7754" x="27" y="55.9951">menuId: Object</text><rect fill="none" height="6" style="stroke:#C82930;stroke-width:1;" width="6" x="15" y="65.9453"/><text fill="#000000" font-family="sans-serif" font-size="14" lengthAdjust="spacing" textLength="157.8828" x="27" y="72.292">dateReservation: Date</text><rect fill="none" height="6" style="stroke:#C82930;stroke-width:1;" width="6" x="15" y="82.2422"/><text fill="#000000" font-family="sans-serif" font-size="14" lengthAdjust="spacing" textLength="158.2246" x="27" y="88.5889">stateReservation: bool</text><line style="stroke:#181818;stroke-width:0.5;" x1="8" x2="190.2246" y1="95.8906" y2="95.8906"/></g><!--class Menu--><g id="elem_Menu"><rect codeLine="7" fill="#F1F1F1" height="113.1875" id="Menu" rx="2.5" ry="2.5" style="stroke:#181818;stroke-width:0.5;" width="153.1963" x="22.5" y="181"/><ellipse cx="75.6289" cy="197" fill="#ADD1B2" rx="11" ry="11" style="stroke:#181818;stroke-width:1;"/><path d="M78.5977,202.6406 Q78.0195,202.9375 77.3789,203.0781 Q76.7383,203.2344 76.0352,203.2344 Q73.5352,203.2344 72.207,201.5938 Q70.8945,199.9375 70.8945,196.8125 Q70.8945,193.6875 72.207,192.0313 Q73.5352,190.375 76.0352,190.375 Q76.7383,190.375 77.3789,190.5313 Q78.0352,190.6875 78.5977,190.9844 L78.5977,193.7031 Q77.9727,193.125 77.3789,192.8594 Q76.7852,192.5781 76.1602,192.5781 Q74.8164,192.5781 74.1289,193.6563 Q73.4414,194.7188 73.4414,196.8125 Q73.4414,198.9063 74.1289,199.9844 Q74.8164,201.0469 76.1602,201.0469 Q76.7852,201.0469 77.3789,200.7813 Q77.9727,200.5 78.5977,199.9219 L78.5977,202.6406 Z " fill="#000000"/><text fill="#000000" font-family="sans-serif" font-size="14" lengthAdjust="spacing" textLength="38.4385" x="96.1289" y="201.8467">Menu</text><line style="stroke:#181818;stroke-width:0.5;" x1="23.5" x2="174.6963" y1="213" y2="213"/><rect fill="none" height="6" style="stroke:#C82930;stroke-width:1;" width="6" x="30.5" y="223.6484"/><text fill="#000000" font-family="sans-serif" font-size="14" lengthAdjust="spacing" textLength="89.0586" x="42.5" y="229.9951">name: string</text><rect fill="none" height="6" style="stroke:#C82930;stroke-width:1;" width="6" x="30.5" y="239.9453"/><text fill="#000000" font-family="sans-serif" font-size="14" lengthAdjust="spacing" textLength="127.1963" x="42.5" y="246.292">description: string</text><rect fill="none" height="6" style="stroke:#C82930;stroke-width:1;" width="6" x="30.5" y="256.2422"/><text fill="#000000" font-family="sans-serif" font-size="14" lengthAdjust="spacing" textLength="78.5859" x="42.5" y="262.5889">price: Float</text><rect fill="none" height="6" style="stroke:#C82930;stroke-width:1;" width="6" x="30.5" y="272.5391"/><text fill="#000000" font-family="sans-serif" font-size="14" lengthAdjust="spacing" textLength="102.2656" x="42.5" y="278.8857">available: bool</text><line style="stroke:#181818;stroke-width:0.5;" x1="23.5" x2="174.6963" y1="286.1875" y2="286.1875"/></g><!--link Reserva to Menu--><g id="link_Reserva_Menu"><path codeLine="14" d="M99,104.26 C99,127.8 99,150.33 99,174.85 " fill="none" id="Reserva-to-Menu" style="stroke:#181818;stroke-width:1;"/><polygon fill="#181818" points="99,180.85,103,171.85,99,175.85,95,171.85,99,180.85" style="stroke:#181818;stroke-width:1;"/><text fill="#000000" font-family="sans-serif" font-size="13" lengthAdjust="spacing" textLength="64.4858" x="100" y="147.0669">Almacena</text><text fill="#000000" font-family="sans-serif" font-size="13" lengthAdjust="spacing" textLength="8.271" x="90.4656" y="123.9031">1</text><text fill="#000000" font-family="sans-serif" font-size="13" lengthAdjust="spacing" textLength="8.271" x="90.5171" y="170.0953">1</text></g><!--SRC=[NOwz2W8n3CVtFaMulODh1q4GmK44to1DWrJIzcZhBOVlRgqLqIdm-t-514k12nVE2yAg03G4ZlUZCt2sDwRQaSFAmrHzYWRs3NIbr7_9fYJgeHJrwbChwxqlSyJ0faMoZzU171VAVdv7VvGvUshkWoIi0-62Nj0AVrS-hq-R2RJUzjit3Uma87749m00]--></g></svg>