<svg xmlns="http://www.w3.org/2000/svg" xmlns:xlink="http://www.w3.org/1999/xlink" contentStyleType="text/css" height="1041px" preserveAspectRatio="none" style="width:1791px;height:1041px;background:#FFFFFF;" version="1.1" viewBox="0 0 1791 1041" width="1791px" zoomAndPan="magnify"><defs/><g><!--cluster ComedorAPI--><g id="cluster_ComedorAPI"><path d="M8.5,59.5 L106.3242,59.5 A3.75,3.75 0 0 1 108.8242,62 L115.8242,81.7969 L748.5,81.7969 A2.5,2.5 0 0 1 751,84.2969 L751,1031.5 A2.5,2.5 0 0 1 748.5,1034 L8.5,1034 A2.5,2.5 0 0 1 6,1031.5 L6,62 A2.5,2.5 0 0 1 8.5,59.5 " fill="none" style="stroke:#000000;stroke-width:1.5;"/><line style="stroke:#000000;stroke-width:1.5;" x1="6" x2="115.8242" y1="81.7969" y2="81.7969"/><text fill="#000000" font-family="sans-serif" font-size="14" font-weight="bold" lengthAdjust="spacing" textLength="96.8242" x="10" y="74.4951">ComedorAPI</text></g><!--cluster Controllers--><g id="cluster_Controllers"><path d="M293.5,110.5 L381.9043,110.5 A3.75,3.75 0 0 1 384.4043,113 L391.4043,132.7969 L716.5,132.7969 A2.5,2.5 0 0 1 719,135.2969 L719,256 A2.5,2.5 0 0 1 716.5,258.5 L293.5,258.5 A2.5,2.5 0 0 1 291,256 L291,113 A2.5,2.5 0 0 1 293.5,110.5 " fill="none" style="stroke:#000000;stroke-width:1.5;"/><line style="stroke:#000000;stroke-width:1.5;" x1="291" x2="391.4043" y1="132.7969" y2="132.7969"/><text fill="#000000" font-family="sans-serif" font-size="14" font-weight="bold" lengthAdjust="spacing" textLength="87.4043" x="295" y="125.4951">Controllers</text></g><!--cluster Data--><g id="cluster_Data"><path d="M294.5,526 L332.708,526 A3.75,3.75 0 0 1 335.208,528.5 L342.208,548.2969 L536.5,548.2969 A2.5,2.5 0 0 1 539,550.7969 L539,654.5 A2.5,2.5 0 0 1 536.5,657 L294.5,657 A2.5,2.5 0 0 1 292,654.5 L292,528.5 A2.5,2.5 0 0 1 294.5,526 " fill="none" style="stroke:#000000;stroke-width:1.5;"/><line style="stroke:#000000;stroke-width:1.5;" x1="292" x2="342.208" y1="548.2969" y2="548.2969"/><text fill="#000000" font-family="sans-serif" font-size="14" font-weight="bold" lengthAdjust="spacing" textLength="37.208" x="296" y="540.9951">Data</text></g><!--cluster Entities--><g id="cluster_Entities"><path d="M261.5,697 L322.8408,697 A3.75,3.75 0 0 1 325.3408,699.5 L332.3408,719.2969 L714.5,719.2969 A2.5,2.5 0 0 1 717,721.7969 L717,999.5 A2.5,2.5 0 0 1 714.5,1002 L261.5,1002 A2.5,2.5 0 0 1 259,999.5 L259,699.5 A2.5,2.5 0 0 1 261.5,697 " fill="none" style="stroke:#000000;stroke-width:1.5;"/><line style="stroke:#000000;stroke-width:1.5;" x1="259" x2="332.3408" y1="719.2969" y2="719.2969"/><text fill="#000000" font-family="sans-serif" font-size="14" font-weight="bold" lengthAdjust="spacing" textLength="60.3408" x="263" y="711.9951">Entities</text></g><!--cluster Services--><g id="cluster_Services"><path d="M294.5,338 L362.0342,338 A3.75,3.75 0 0 1 364.5342,340.5 L371.5342,360.2969 L478.5,360.2969 A2.5,2.5 0 0 1 481,362.7969 L481,483.5 A2.5,2.5 0 0 1 478.5,486 L294.5,486 A2.5,2.5 0 0 1 292,483.5 L292,340.5 A2.5,2.5 0 0 1 294.5,338 " fill="none" style="stroke:#000000;stroke-width:1.5;"/><line style="stroke:#000000;stroke-width:1.5;" x1="292" x2="371.5342" y1="360.2969" y2="360.2969"/><text fill="#000000" font-family="sans-serif" font-size="14" font-weight="bold" lengthAdjust="spacing" textLength="66.5342" x="296" y="352.9951">Services</text></g><!--cluster appsettings--><g id="cluster_appsettings"><path d="M152.5,127 L247.3232,127 A3.75,3.75 0 0 1 249.8232,129.5 L256.8232,149.2969 L256.5,149.2969 A2.5,2.5 0 0 1 259,151.7969 L259,239.5 A2.5,2.5 0 0 1 256.5,242 L152.5,242 A2.5,2.5 0 0 1 150,239.5 L150,129.5 A2.5,2.5 0 0 1 152.5,127 " fill="none" style="stroke:#000000;stroke-width:1.5;"/><line style="stroke:#000000;stroke-width:1.5;" x1="150" x2="256.8232" y1="149.2969" y2="149.2969"/><text fill="#000000" font-family="sans-serif" font-size="14" font-weight="bold" lengthAdjust="spacing" textLength="93.8232" x="154" y="141.9951">appsettings</text></g><!--cluster Program--><g id="cluster_Program"><path d="M32.5,127 L101.2441,127 A3.75,3.75 0 0 1 103.7441,129.5 L110.7441,149.2969 L123.5,149.2969 A2.5,2.5 0 0 1 126,151.7969 L126,239.5 A2.5,2.5 0 0 1 123.5,242 L32.5,242 A2.5,2.5 0 0 1 30,239.5 L30,129.5 A2.5,2.5 0 0 1 32.5,127 " fill="none" style="stroke:#000000;stroke-width:1.5;"/><line style="stroke:#000000;stroke-width:1.5;" x1="30" x2="110.7441" y1="149.2969" y2="149.2969"/><text fill="#000000" font-family="sans-serif" font-size="14" font-weight="bold" lengthAdjust="spacing" textLength="67.7441" x="34" y="141.9951">Program</text></g><!--cluster ComedorFrontend--><g id="cluster_ComedorFrontend"><path d="M777.5,6 L921.248,6 A3.75,3.75 0 0 1 923.748,8.5 L930.748,28.2969 L1781.5,28.2969 A2.5,2.5 0 0 1 1784,30.7969 L1784,303.5 A2.5,2.5 0 0 1 1781.5,306 L777.5,306 A2.5,2.5 0 0 1 775,303.5 L775,8.5 A2.5,2.5 0 0 1 777.5,6 " fill="none" style="stroke:#000000;stroke-width:1.5;"/><line style="stroke:#000000;stroke-width:1.5;" x1="775" x2="930.748" y1="28.2969" y2="28.2969"/><text fill="#000000" font-family="sans-serif" font-size="14" font-weight="bold" lengthAdjust="spacing" textLength="142.748" x="779" y="20.9951">ComedorFrontend</text></g><!--cluster wwwroot--><g id="cluster_wwwroot"><path d="M1054.5,49 L1127.1338,49 A3.75,3.75 0 0 1 1129.6338,51.5 L1136.6338,71.2969 L1757.5,71.2969 A2.5,2.5 0 0 1 1760,73.7969 L1760,279.5 A2.5,2.5 0 0 1 1757.5,282 L1054.5,282 A2.5,2.5 0 0 1 1052,279.5 L1052,51.5 A2.5,2.5 0 0 1 1054.5,49 " fill="none" style="stroke:#000000;stroke-width:1.5;"/><line style="stroke:#000000;stroke-width:1.5;" x1="1052" x2="1136.6338" y1="71.2969" y2="71.2969"/><text fill="#000000" font-family="sans-serif" font-size="14" font-weight="bold" lengthAdjust="spacing" textLength="71.6338" x="1056" y="63.9951">wwwroot</text></g><!--cluster css--><g id="cluster_css"><path d="M1604.5,92 L1630.4648,92 A3.75,3.75 0 0 1 1632.9648,94.5 L1639.9648,114.2969 L1733.5,114.2969 A2.5,2.5 0 0 1 1736,116.7969 L1736,255.5 A2.5,2.5 0 0 1 1733.5,258 L1604.5,258 A2.5,2.5 0 0 1 1602,255.5 L1602,94.5 A2.5,2.5 0 0 1 1604.5,92 " fill="none" style="stroke:#000000;stroke-width:1.5;"/><line style="stroke:#000000;stroke-width:1.5;" x1="1602" x2="1639.9648" y1="114.2969" y2="114.2969"/><text fill="#000000" font-family="sans-serif" font-size="14" font-weight="bold" lengthAdjust="spacing" textLength="24.9648" x="1606" y="106.9951">css</text></g><!--cluster styles--><g id="cluster_styles"><path d="M1628.5,135 L1676.2783,135 A3.75,3.75 0 0 1 1678.7783,137.5 L1685.7783,157.2969 L1709.5,157.2969 A2.5,2.5 0 0 1 1712,159.7969 L1712,231.5 A2.5,2.5 0 0 1 1709.5,234 L1628.5,234 A2.5,2.5 0 0 1 1626,231.5 L1626,137.5 A2.5,2.5 0 0 1 1628.5,135 " fill="none" style="stroke:#000000;stroke-width:1.5;"/><line style="stroke:#000000;stroke-width:1.5;" x1="1626" x2="1685.7783" y1="157.2969" y2="157.2969"/><text fill="#000000" font-family="sans-serif" font-size="14" font-weight="bold" lengthAdjust="spacing" textLength="46.7783" x="1630" y="149.9951">styles</text></g><!--cluster img--><g id="cluster_img"><path d="M1446.5,92 L1476.9082,92 A3.75,3.75 0 0 1 1479.4082,94.5 L1486.4082,114.2969 L1575.5,114.2969 A2.5,2.5 0 0 1 1578,116.7969 L1578,255.5 A2.5,2.5 0 0 1 1575.5,258 L1446.5,258 A2.5,2.5 0 0 1 1444,255.5 L1444,94.5 A2.5,2.5 0 0 1 1446.5,92 " fill="none" style="stroke:#000000;stroke-width:1.5;"/><line style="stroke:#000000;stroke-width:1.5;" x1="1444" x2="1486.4082" y1="114.2969" y2="114.2969"/><text fill="#000000" font-family="sans-serif" font-size="14" font-weight="bold" lengthAdjust="spacing" textLength="29.4082" x="1448" y="106.9951">img</text></g><!--cluster snow--><g id="cluster_snow"><path d="M1470.5,135 L1512.3516,135 A3.75,3.75 0 0 1 1514.8516,137.5 L1521.8516,157.2969 L1551.5,157.2969 A2.5,2.5 0 0 1 1554,159.7969 L1554,231.5 A2.5,2.5 0 0 1 1551.5,234 L1470.5,234 A2.5,2.5 0 0 1 1468,231.5 L1468,137.5 A2.5,2.5 0 0 1 1470.5,135 " fill="none" style="stroke:#000000;stroke-width:1.5;"/><line style="stroke:#000000;stroke-width:1.5;" x1="1468" x2="1521.8516" y1="157.2969" y2="157.2969"/><text fill="#000000" font-family="sans-serif" font-size="14" font-weight="bold" lengthAdjust="spacing" textLength="40.8516" x="1472" y="149.9951">snow</text></g><!--cluster js--><g id="cluster_js"><path d="M1198.5,92 L1212.6318,92 A3.75,3.75 0 0 1 1215.1318,94.5 L1222.1318,114.2969 L1417.5,114.2969 A2.5,2.5 0 0 1 1420,116.7969 L1420,255.5 A2.5,2.5 0 0 1 1417.5,258 L1198.5,258 A2.5,2.5 0 0 1 1196,255.5 L1196,94.5 A2.5,2.5 0 0 1 1198.5,92 " fill="none" style="stroke:#000000;stroke-width:1.5;"/><line style="stroke:#000000;stroke-width:1.5;" x1="1196" x2="1222.1318" y1="114.2969" y2="114.2969"/><text fill="#000000" font-family="sans-serif" font-size="14" font-weight="bold" lengthAdjust="spacing" textLength="13.1318" x="1200" y="106.9951">js</text></g><!--cluster app--><g id="cluster_app"><path d="M1322.5,135 L1352.9902,135 A3.75,3.75 0 0 1 1355.4902,137.5 L1362.4902,157.2969 L1393.5,157.2969 A2.5,2.5 0 0 1 1396,159.7969 L1396,231.5 A2.5,2.5 0 0 1 1393.5,234 L1322.5,234 A2.5,2.5 0 0 1 1320,231.5 L1320,137.5 A2.5,2.5 0 0 1 1322.5,135 " fill="none" style="stroke:#000000;stroke-width:1.5;"/><line style="stroke:#000000;stroke-width:1.5;" x1="1320" x2="1362.4902" y1="157.2969" y2="157.2969"/><text fill="#000000" font-family="sans-serif" font-size="14" font-weight="bold" lengthAdjust="spacing" textLength="29.4902" x="1324" y="149.9951">app</text></g><!--cluster table--><g id="cluster_table"><path d="M1222.5,135 L1263.9551,135 A3.75,3.75 0 0 1 1266.4551,137.5 L1273.4551,157.2969 L1293.5,157.2969 A2.5,2.5 0 0 1 1296,159.7969 L1296,231.5 A2.5,2.5 0 0 1 1293.5,234 L1222.5,234 A2.5,2.5 0 0 1 1220,231.5 L1220,137.5 A2.5,2.5 0 0 1 1222.5,135 " fill="none" style="stroke:#000000;stroke-width:1.5;"/><line style="stroke:#000000;stroke-width:1.5;" x1="1220" x2="1273.4551" y1="157.2969" y2="157.2969"/><text fill="#000000" font-family="sans-serif" font-size="14" font-weight="bold" lengthAdjust="spacing" textLength="40.4551" x="1224" y="149.9951">table</text></g><!--cluster index--><g id="cluster_index"><path d="M1078.5,135 L1122.8125,135 A3.75,3.75 0 0 1 1125.3125,137.5 L1132.3125,157.2969 L1169.5,157.2969 A2.5,2.5 0 0 1 1172,159.7969 L1172,231.5 A2.5,2.5 0 0 1 1169.5,234 L1078.5,234 A2.5,2.5 0 0 1 1076,231.5 L1076,137.5 A2.5,2.5 0 0 1 1078.5,135 " fill="none" style="stroke:#000000;stroke-width:1.5;"/><line style="stroke:#000000;stroke-width:1.5;" x1="1076" x2="1132.3125" y1="157.2969" y2="157.2969"/><text fill="#000000" font-family="sans-serif" font-size="14" font-weight="bold" lengthAdjust="spacing" textLength="43.3125" x="1080" y="149.9951">index</text></g><!--cluster appsettings--><g id="cluster_appsettings"><path d="M921.5,127 L1016.3232,127 A3.75,3.75 0 0 1 1018.8232,129.5 L1025.8232,149.2969 L1025.5,149.2969 A2.5,2.5 0 0 1 1028,151.7969 L1028,239.5 A2.5,2.5 0 0 1 1025.5,242 L921.5,242 A2.5,2.5 0 0 1 919,239.5 L919,129.5 A2.5,2.5 0 0 1 921.5,127 " fill="none" style="stroke:#000000;stroke-width:1.5;"/><line style="stroke:#000000;stroke-width:1.5;" x1="919" x2="1025.8232" y1="149.2969" y2="149.2969"/><text fill="#000000" font-family="sans-serif" font-size="14" font-weight="bold" lengthAdjust="spacing" textLength="93.8232" x="923" y="141.9951">appsettings</text></g><!--cluster Program--><g id="cluster_Program"><path d="M801.5,127 L870.2441,127 A3.75,3.75 0 0 1 872.7441,129.5 L879.7441,149.2969 L892.5,149.2969 A2.5,2.5 0 0 1 895,151.7969 L895,239.5 A2.5,2.5 0 0 1 892.5,242 L801.5,242 A2.5,2.5 0 0 1 799,239.5 L799,129.5 A2.5,2.5 0 0 1 801.5,127 " fill="none" style="stroke:#000000;stroke-width:1.5;"/><line style="stroke:#000000;stroke-width:1.5;" x1="799" x2="879.7441" y1="149.2969" y2="149.2969"/><text fill="#000000" font-family="sans-serif" font-size="14" font-weight="bold" lengthAdjust="spacing" textLength="67.7441" x="803" y="141.9951">Program</text></g><!--class MenuController--><g id="elem_MenuController"><rect codeLine="4" fill="#F1F1F1" height="80.5938" id="MenuController" rx="2.5" ry="2.5" style="stroke:#181818;stroke-width:0.5;" width="139.6113" x="555" y="153.5"/><ellipse cx="570" cy="169.5" fill="#ADD1B2" rx="11" ry="11" style="stroke:#181818;stroke-width:1;"/><path d="M572.9688,175.1406 Q572.3906,175.4375 571.75,175.5781 Q571.1094,175.7344 570.4063,175.7344 Q567.9063,175.7344 566.5781,174.0938 Q565.2656,172.4375 565.2656,169.3125 Q565.2656,166.1875 566.5781,164.5313 Q567.9063,162.875 570.4063,162.875 Q571.1094,162.875 571.75,163.0313 Q572.4063,163.1875 572.9688,163.4844 L572.9688,166.2031 Q572.3438,165.625 571.75,165.3594 Q571.1563,165.0781 570.5313,165.0781 Q569.1875,165.0781 568.5,166.1563 Q567.8125,167.2188 567.8125,169.3125 Q567.8125,171.4063 568.5,172.4844 Q569.1875,173.5469 570.5313,173.5469 Q571.1563,173.5469 571.75,173.2813 Q572.3438,173 572.9688,172.4219 L572.9688,175.1406 Z " fill="#000000"/><text fill="#000000" font-family="sans-serif" font-size="14" lengthAdjust="spacing" textLength="107.6113" x="584" y="174.3467">MenuController</text><line style="stroke:#181818;stroke-width:0.5;" x1="556" x2="693.6113" y1="185.5" y2="185.5"/><line style="stroke:#181818;stroke-width:0.5;" x1="556" x2="693.6113" y1="193.5" y2="193.5"/><ellipse cx="566" cy="207.1484" fill="#84BE84" rx="3" ry="3" style="stroke:#038048;stroke-width:1;"/><text fill="#000000" font-family="sans-serif" font-size="14" lengthAdjust="spacing" textLength="74.3135" x="575" y="210.4951">GetMenu()</text><ellipse cx="566" cy="223.4453" fill="#84BE84" rx="3" ry="3" style="stroke:#038048;stroke-width:1;"/><text fill="#000000" font-family="sans-serif" font-size="14" lengthAdjust="spacing" textLength="76.7129" x="575" y="226.792">AddMenu()</text></g><!--class ReservationController--><g id="elem_ReservationController"><rect codeLine="8" fill="#F1F1F1" height="80.5938" id="ReservationController" rx="2.5" ry="2.5" style="stroke:#181818;stroke-width:0.5;" width="184.8584" x="334.5" y="153.5"/><ellipse cx="349.5" cy="169.5" fill="#ADD1B2" rx="11" ry="11" style="stroke:#181818;stroke-width:1;"/><path d="M352.4688,175.1406 Q351.8906,175.4375 351.25,175.5781 Q350.6094,175.7344 349.9063,175.7344 Q347.4063,175.7344 346.0781,174.0938 Q344.7656,172.4375 344.7656,169.3125 Q344.7656,166.1875 346.0781,164.5313 Q347.4063,162.875 349.9063,162.875 Q350.6094,162.875 351.25,163.0313 Q351.9063,163.1875 352.4688,163.4844 L352.4688,166.2031 Q351.8438,165.625 351.25,165.3594 Q350.6563,165.0781 350.0313,165.0781 Q348.6875,165.0781 348,166.1563 Q347.3125,167.2188 347.3125,169.3125 Q347.3125,171.4063 348,172.4844 Q348.6875,173.5469 350.0313,173.5469 Q350.6563,173.5469 351.25,173.2813 Q351.8438,173 352.4688,172.4219 L352.4688,175.1406 Z " fill="#000000"/><text fill="#000000" font-family="sans-serif" font-size="14" lengthAdjust="spacing" textLength="152.8584" x="363.5" y="174.3467">ReservationController</text><line style="stroke:#181818;stroke-width:0.5;" x1="335.5" x2="518.3584" y1="185.5" y2="185.5"/><line style="stroke:#181818;stroke-width:0.5;" x1="335.5" x2="518.3584" y1="193.5" y2="193.5"/><ellipse cx="345.5" cy="207.1484" fill="#84BE84" rx="3" ry="3" style="stroke:#038048;stroke-width:1;"/><text fill="#000000" font-family="sans-serif" font-size="14" lengthAdjust="spacing" textLength="126.8545" x="354.5" y="210.4951">GetReservations()</text><ellipse cx="345.5" cy="223.4453" fill="#84BE84" rx="3" ry="3" style="stroke:#038048;stroke-width:1;"/><text fill="#000000" font-family="sans-serif" font-size="14" lengthAdjust="spacing" textLength="121.96" x="354.5" y="226.792">AddReservation()</text></g><!--class MongoDbService--><g id="elem_MongoDbService"><rect codeLine="15" fill="#F1F1F1" height="64.2969" id="MongoDbService" rx="2.5" ry="2.5" style="stroke:#181818;stroke-width:0.5;" width="178.7285" x="335.5" y="569"/><ellipse cx="363.2578" cy="585" fill="#ADD1B2" rx="11" ry="11" style="stroke:#181818;stroke-width:1;"/><path d="M366.2265,590.6406 Q365.6484,590.9375 365.0078,591.0781 Q364.3671,591.2344 363.664,591.2344 Q361.164,591.2344 359.8359,589.5938 Q358.5234,587.9375 358.5234,584.8125 Q358.5234,581.6875 359.8359,580.0313 Q361.164,578.375 363.664,578.375 Q364.3671,578.375 365.0078,578.5313 Q365.664,578.6875 366.2265,578.9844 L366.2265,581.7031 Q365.6015,581.125 365.0078,580.8594 Q364.414,580.5781 363.789,580.5781 Q362.4453,580.5781 361.7578,581.6563 Q361.0703,582.7188 361.0703,584.8125 Q361.0703,586.9063 361.7578,587.9844 Q362.4453,589.0469 363.789,589.0469 Q364.414,589.0469 365.0078,588.7813 Q365.6015,588.5 366.2265,587.9219 L366.2265,590.6406 Z " fill="#000000"/><text fill="#000000" font-family="sans-serif" font-size="14" lengthAdjust="spacing" textLength="118.3779" x="380.0928" y="589.8467">MongoDbService</text><line style="stroke:#181818;stroke-width:0.5;" x1="336.5" x2="513.2285" y1="601" y2="601"/><line style="stroke:#181818;stroke-width:0.5;" x1="336.5" x2="513.2285" y1="609" y2="609"/><ellipse cx="346.5" cy="622.6484" fill="#84BE84" rx="3" ry="3" style="stroke:#038048;stroke-width:1;"/><text fill="#000000" font-family="sans-serif" font-size="14" lengthAdjust="spacing" textLength="152.7285" x="355.5" y="625.9951">ConnectToDatabase()</text></g><!--class Menu--><g id="elem_Menu"><rect codeLine="21" fill="#F1F1F1" height="96.8906" id="Menu" rx="2.5" ry="2.5" style="stroke:#181818;stroke-width:0.5;" width="119.1738" x="310.5" y="740"/><ellipse cx="347.4309" cy="756" fill="#ADD1B2" rx="11" ry="11" style="stroke:#181818;stroke-width:1;"/><path d="M350.3997,761.6406 Q349.8215,761.9375 349.1809,762.0781 Q348.5403,762.2344 347.8372,762.2344 Q345.3372,762.2344 344.009,760.5938 Q342.6965,758.9375 342.6965,755.8125 Q342.6965,752.6875 344.009,751.0313 Q345.3372,749.375 347.8372,749.375 Q348.5403,749.375 349.1809,749.5313 Q349.8372,749.6875 350.3997,749.9844 L350.3997,752.7031 Q349.7747,752.125 349.1809,751.8594 Q348.5872,751.5781 347.9622,751.5781 Q346.6184,751.5781 345.9309,752.6563 Q345.2434,753.7188 345.2434,755.8125 Q345.2434,757.9063 345.9309,758.9844 Q346.6184,760.0469 347.9622,760.0469 Q348.5872,760.0469 349.1809,759.7813 Q349.7747,759.5 350.3997,758.9219 L350.3997,761.6406 Z " fill="#000000"/><text fill="#000000" font-family="sans-serif" font-size="14" lengthAdjust="spacing" textLength="38.4385" x="366.3044" y="760.8467">Menu</text><line style="stroke:#181818;stroke-width:0.5;" x1="311.5" x2="428.6738" y1="772" y2="772"/><rect fill="none" height="6" style="stroke:#C82930;stroke-width:1;" width="6" x="318.5" y="782.6484"/><text fill="#000000" font-family="sans-serif" font-size="14" lengthAdjust="spacing" textLength="80.7939" x="330.5" y="788.9951">Id: ObjectId</text><rect fill="none" height="6" style="stroke:#C82930;stroke-width:1;" width="6" x="318.5" y="798.9453"/><text fill="#000000" font-family="sans-serif" font-size="14" lengthAdjust="spacing" textLength="92.251" x="330.5" y="805.292">Name: String</text><rect fill="none" height="6" style="stroke:#C82930;stroke-width:1;" width="6" x="318.5" y="815.2422"/><text fill="#000000" font-family="sans-serif" font-size="14" lengthAdjust="spacing" textLength="93.1738" x="330.5" y="821.5889">Price: Double</text><line style="stroke:#181818;stroke-width:0.5;" x1="311.5" x2="428.6738" y1="828.8906" y2="828.8906"/></g><!--class Reservation--><g id="elem_Reservation"><rect codeLine="26" fill="#F1F1F1" height="96.8906" id="Reservation" rx="2.5" ry="2.5" style="stroke:#181818;stroke-width:0.5;" width="145.2324" x="464.5" y="740"/><ellipse cx="492.7961" cy="756" fill="#ADD1B2" rx="11" ry="11" style="stroke:#181818;stroke-width:1;"/><path d="M495.7648,761.6406 Q495.1867,761.9375 494.5461,762.0781 Q493.9055,762.2344 493.2023,762.2344 Q490.7023,762.2344 489.3742,760.5938 Q488.0617,758.9375 488.0617,755.8125 Q488.0617,752.6875 489.3742,751.0313 Q490.7023,749.375 493.2023,749.375 Q493.9055,749.375 494.5461,749.5313 Q495.2023,749.6875 495.7648,749.9844 L495.7648,752.7031 Q495.1398,752.125 494.5461,751.8594 Q493.9523,751.5781 493.3273,751.5781 Q491.9836,751.5781 491.2961,752.6563 Q490.6086,753.7188 490.6086,755.8125 Q490.6086,757.9063 491.2961,758.9844 Q491.9836,760.0469 493.3273,760.0469 Q493.9523,760.0469 494.5461,759.7813 Q495.1398,759.5 495.7648,758.9219 L495.7648,761.6406 Z " fill="#000000"/><text fill="#000000" font-family="sans-serif" font-size="14" lengthAdjust="spacing" textLength="83.6855" x="509.7508" y="760.8467">Reservation</text><line style="stroke:#181818;stroke-width:0.5;" x1="465.5" x2="608.7324" y1="772" y2="772"/><rect fill="none" height="6" style="stroke:#C82930;stroke-width:1;" width="6" x="472.5" y="782.6484"/><text fill="#000000" font-family="sans-serif" font-size="14" lengthAdjust="spacing" textLength="80.7939" x="484.5" y="788.9951">Id: ObjectId</text><rect fill="none" height="6" style="stroke:#C82930;stroke-width:1;" width="6" x="472.5" y="798.9453"/><text fill="#000000" font-family="sans-serif" font-size="14" lengthAdjust="spacing" textLength="76.0908" x="484.5" y="805.292">Date: Date</text><rect fill="none" height="6" style="stroke:#C82930;stroke-width:1;" width="6" x="472.5" y="815.2422"/><text fill="#000000" font-family="sans-serif" font-size="14" lengthAdjust="spacing" textLength="119.2324" x="484.5" y="821.5889">MenuId: ObjectId</text><line style="stroke:#181818;stroke-width:0.5;" x1="465.5" x2="608.7324" y1="828.8906" y2="828.8906"/></g><!--class ReservationDTO--><g id="elem_ReservationDTO"><rect codeLine="31" fill="#F1F1F1" height="80.5938" id="ReservationDTO" rx="2.5" ry="2.5" style="stroke:#181818;stroke-width:0.5;" width="156.6895" x="291.5" y="897"/><ellipse cx="311.2936" cy="913" fill="#ADD1B2" rx="11" ry="11" style="stroke:#181818;stroke-width:1;"/><path d="M314.2623,918.6406 Q313.6842,918.9375 313.0436,919.0781 Q312.4029,919.2344 311.6998,919.2344 Q309.1998,919.2344 307.8717,917.5938 Q306.5592,915.9375 306.5592,912.8125 Q306.5592,909.6875 307.8717,908.0313 Q309.1998,906.375 311.6998,906.375 Q312.4029,906.375 313.0436,906.5313 Q313.6998,906.6875 314.2623,906.9844 L314.2623,909.7031 Q313.6373,909.125 313.0436,908.8594 Q312.4498,908.5781 311.8248,908.5781 Q310.4811,908.5781 309.7936,909.6563 Q309.1061,910.7188 309.1061,912.8125 Q309.1061,914.9063 309.7936,915.9844 Q310.4811,917.0469 311.8248,917.0469 Q312.4498,917.0469 313.0436,916.7813 Q313.6373,916.5 314.2623,915.9219 L314.2623,918.6406 Z " fill="#000000"/><text fill="#000000" font-family="sans-serif" font-size="14" lengthAdjust="spacing" textLength="114.0371" x="326.3588" y="917.8467">ReservationDTO</text><line style="stroke:#181818;stroke-width:0.5;" x1="292.5" x2="447.1895" y1="929" y2="929"/><rect fill="none" height="6" style="stroke:#C82930;stroke-width:1;" width="6" x="299.5" y="939.6484"/><text fill="#000000" font-family="sans-serif" font-size="14" lengthAdjust="spacing" textLength="76.0908" x="311.5" y="945.9951">Date: Date</text><rect fill="none" height="6" style="stroke:#C82930;stroke-width:1;" width="6" x="299.5" y="955.9453"/><text fill="#000000" font-family="sans-serif" font-size="14" lengthAdjust="spacing" textLength="130.6895" x="311.5" y="962.292">MenuName: String</text><line style="stroke:#181818;stroke-width:0.5;" x1="292.5" x2="447.1895" y1="969.5938" y2="969.5938"/></g><!--class ReservationWithMenu--><g id="elem_ReservationWithMenu"><rect codeLine="35" fill="#F1F1F1" height="80.5938" id="ReservationWithMenu" rx="2.5" ry="2.5" style="stroke:#181818;stroke-width:0.5;" width="209.1689" x="483.5" y="897"/><ellipse cx="508.8276" cy="913" fill="#ADD1B2" rx="11" ry="11" style="stroke:#181818;stroke-width:1;"/><path d="M511.7963,918.6406 Q511.2182,918.9375 510.5776,919.0781 Q509.937,919.2344 509.2338,919.2344 Q506.7338,919.2344 505.4057,917.5938 Q504.0932,915.9375 504.0932,912.8125 Q504.0932,909.6875 505.4057,908.0313 Q506.7338,906.375 509.2338,906.375 Q509.937,906.375 510.5776,906.5313 Q511.2338,906.6875 511.7963,906.9844 L511.7963,909.7031 Q511.1713,909.125 510.5776,908.8594 Q509.9838,908.5781 509.3588,908.5781 Q508.0151,908.5781 507.3276,909.6563 Q506.6401,910.7188 506.6401,912.8125 Q506.6401,914.9063 507.3276,915.9844 Q508.0151,917.0469 509.3588,917.0469 Q509.9838,917.0469 510.5776,916.7813 Q511.1713,916.5 511.7963,915.9219 L511.7963,918.6406 Z " fill="#000000"/><text fill="#000000" font-family="sans-serif" font-size="14" lengthAdjust="spacing" textLength="154.2188" x="525.1226" y="917.8467">ReservationWithMenu</text><line style="stroke:#181818;stroke-width:0.5;" x1="484.5" x2="691.6689" y1="929" y2="929"/><rect fill="none" height="6" style="stroke:#C82930;stroke-width:1;" width="6" x="491.5" y="939.6484"/><text fill="#000000" font-family="sans-serif" font-size="14" lengthAdjust="spacing" textLength="183.1689" x="503.5" y="945.9951">ReservationDetails: String</text><rect fill="none" height="6" style="stroke:#C82930;stroke-width:1;" width="6" x="491.5" y="955.9453"/><text fill="#000000" font-family="sans-serif" font-size="14" lengthAdjust="spacing" textLength="137.9219" x="503.5" y="962.292">MenuDetails: String</text><line style="stroke:#181818;stroke-width:0.5;" x1="484.5" x2="691.6689" y1="969.5938" y2="969.5938"/></g><!--class MenuService--><g id="elem_MenuService"><rect codeLine="42" fill="#F1F1F1" height="80.5938" id="MenuService" rx="2.5" ry="2.5" style="stroke:#181818;stroke-width:0.5;" width="122.1885" x="335" y="381"/><ellipse cx="350.004" cy="397" fill="#ADD1B2" rx="11" ry="11" style="stroke:#181818;stroke-width:1;"/><path d="M352.9727,402.6406 Q352.3946,402.9375 351.754,403.0781 Q351.1133,403.2344 350.4102,403.2344 Q347.9102,403.2344 346.5821,401.5938 Q345.2696,399.9375 345.2696,396.8125 Q345.2696,393.6875 346.5821,392.0313 Q347.9102,390.375 350.4102,390.375 Q351.1133,390.375 351.754,390.5313 Q352.4102,390.6875 352.9727,390.9844 L352.9727,393.7031 Q352.3477,393.125 351.754,392.8594 Q351.1602,392.5781 350.5352,392.5781 Q349.1915,392.5781 348.504,393.6563 Q347.8165,394.7188 347.8165,396.8125 Q347.8165,398.9063 348.504,399.9844 Q349.1915,401.0469 350.5352,401.0469 Q351.1602,401.0469 351.754,400.7813 Q352.3477,400.5 352.9727,399.9219 L352.9727,402.6406 Z " fill="#000000"/><text fill="#000000" font-family="sans-serif" font-size="14" lengthAdjust="spacing" textLength="90.1797" x="364.0048" y="401.8467">MenuService</text><line style="stroke:#181818;stroke-width:0.5;" x1="336" x2="456.1885" y1="413" y2="413"/><line style="stroke:#181818;stroke-width:0.5;" x1="336" x2="456.1885" y1="421" y2="421"/><ellipse cx="346" cy="434.6484" fill="#84BE84" rx="3" ry="3" style="stroke:#038048;stroke-width:1;"/><text fill="#000000" font-family="sans-serif" font-size="14" lengthAdjust="spacing" textLength="81.6074" x="355" y="437.9951">GetMenus()</text><ellipse cx="346" cy="450.9453" fill="#84BE84" rx="3" ry="3" style="stroke:#038048;stroke-width:1;"/><text fill="#000000" font-family="sans-serif" font-size="14" lengthAdjust="spacing" textLength="96.1885" x="355" y="454.292">CreateMenu()</text></g><!--class json--><g id="elem_json"><rect codeLine="48" fill="#F1F1F1" height="64.2969" id="json" rx="2.5" ry="2.5" style="stroke:#181818;stroke-width:0.5;" width="63.8848" x="172" y="162"/><ellipse cx="188.4682" cy="178" fill="#ADD1B2" rx="11" ry="11" style="stroke:#181818;stroke-width:1;"/><path d="M191.437,183.6406 Q190.8588,183.9375 190.2182,184.0781 Q189.5776,184.2344 188.8745,184.2344 Q186.3745,184.2344 185.0463,182.5938 Q183.7338,180.9375 183.7338,177.8125 Q183.7338,174.6875 185.0463,173.0313 Q186.3745,171.375 188.8745,171.375 Q189.5776,171.375 190.2182,171.5313 Q190.8745,171.6875 191.437,171.9844 L191.437,174.7031 Q190.812,174.125 190.2182,173.8594 Q189.6245,173.5781 188.9995,173.5781 Q187.6557,173.5781 186.9682,174.6563 Q186.2807,175.7188 186.2807,177.8125 Q186.2807,179.9063 186.9682,180.9844 Q187.6557,182.0469 188.9995,182.0469 Q189.6245,182.0469 190.2182,181.7813 Q190.812,181.5 191.437,180.9219 L191.437,183.6406 Z " fill="#000000"/><text fill="#000000" font-family="sans-serif" font-size="14" lengthAdjust="spacing" textLength="28.6221" x="202.7945" y="182.8467">json</text><line style="stroke:#181818;stroke-width:0.5;" x1="173" x2="234.8848" y1="194" y2="194"/><text fill="#000000" font-family="sans-serif" font-size="14" lengthAdjust="spacing" textLength="51.8848" x="178" y="210.9951">&#171;class&#187;</text><line style="stroke:#181818;stroke-width:0.5;" x1="173" x2="234.8848" y1="218.2969" y2="218.2969"/></g><!--class cs--><g id="elem_cs"><rect codeLine="51" fill="#F1F1F1" height="64.2969" id="cs" rx="2.5" ry="2.5" style="stroke:#181818;stroke-width:0.5;" width="63.8848" x="46" y="162"/><ellipse cx="68.6021" cy="178" fill="#ADD1B2" rx="11" ry="11" style="stroke:#181818;stroke-width:1;"/><path d="M71.5708,183.6406 Q70.9927,183.9375 70.3521,184.0781 Q69.7115,184.2344 69.0083,184.2344 Q66.5083,184.2344 65.1802,182.5938 Q63.8677,180.9375 63.8677,177.8125 Q63.8677,174.6875 65.1802,173.0313 Q66.5083,171.375 69.0083,171.375 Q69.7115,171.375 70.3521,171.5313 Q71.0083,171.6875 71.5708,171.9844 L71.5708,174.7031 Q70.9458,174.125 70.3521,173.8594 Q69.7583,173.5781 69.1333,173.5781 Q67.7896,173.5781 67.1021,174.6563 Q66.4146,175.7188 66.4146,177.8125 Q66.4146,179.9063 67.1021,180.9844 Q67.7896,182.0469 69.1333,182.0469 Q69.7583,182.0469 70.3521,181.7813 Q70.9458,181.5 71.5708,180.9219 L71.5708,183.6406 Z " fill="#000000"/><text fill="#000000" font-family="sans-serif" font-size="14" lengthAdjust="spacing" textLength="14.9912" x="84.2915" y="182.8467">cs</text><line style="stroke:#181818;stroke-width:0.5;" x1="47" x2="108.8848" y1="194" y2="194"/><text fill="#000000" font-family="sans-serif" font-size="14" lengthAdjust="spacing" textLength="51.8848" x="52" y="210.9951">&#171;class&#187;</text><line style="stroke:#181818;stroke-width:0.5;" x1="47" x2="108.8848" y1="218.2969" y2="218.2969"/></g><!--class css--><g id="elem_css"><rect codeLine="60" fill="#F1F1F1" height="48" id="css" rx="2.5" ry="2.5" style="stroke:#181818;stroke-width:0.5;" width="54.2852" x="1642" y="170"/><ellipse cx="1657" cy="186" fill="#ADD1B2" rx="11" ry="11" style="stroke:#181818;stroke-width:1;"/><path d="M1659.9688,191.6406 Q1659.3906,191.9375 1658.75,192.0781 Q1658.1094,192.2344 1657.4063,192.2344 Q1654.9063,192.2344 1653.5781,190.5938 Q1652.2656,188.9375 1652.2656,185.8125 Q1652.2656,182.6875 1653.5781,181.0313 Q1654.9063,179.375 1657.4063,179.375 Q1658.1094,179.375 1658.75,179.5313 Q1659.4063,179.6875 1659.9688,179.9844 L1659.9688,182.7031 Q1659.3438,182.125 1658.75,181.8594 Q1658.1563,181.5781 1657.5313,181.5781 Q1656.1875,181.5781 1655.5,182.6563 Q1654.8125,183.7188 1654.8125,185.8125 Q1654.8125,187.9063 1655.5,188.9844 Q1656.1875,190.0469 1657.5313,190.0469 Q1658.1563,190.0469 1658.75,189.7813 Q1659.3438,189.5 1659.9688,188.9219 L1659.9688,191.6406 Z " fill="#000000"/><text fill="#000000" font-family="sans-serif" font-size="14" lengthAdjust="spacing" textLength="22.2852" x="1671" y="190.8467">css</text><line style="stroke:#181818;stroke-width:0.5;" x1="1643" x2="1695.2852" y1="202" y2="202"/><line style="stroke:#181818;stroke-width:0.5;" x1="1643" x2="1695.2852" y1="210" y2="210"/></g><!--class jpg--><g id="elem_jpg"><rect codeLine="63" fill="#F1F1F1" height="48" id="jpg" rx="2.5" ry="2.5" style="stroke:#181818;stroke-width:0.5;" width="53.6631" x="1484" y="170"/><ellipse cx="1499" cy="186" fill="#ADD1B2" rx="11" ry="11" style="stroke:#181818;stroke-width:1;"/><path d="M1501.9688,191.6406 Q1501.3906,191.9375 1500.75,192.0781 Q1500.1094,192.2344 1499.4063,192.2344 Q1496.9063,192.2344 1495.5781,190.5938 Q1494.2656,188.9375 1494.2656,185.8125 Q1494.2656,182.6875 1495.5781,181.0313 Q1496.9063,179.375 1499.4063,179.375 Q1500.1094,179.375 1500.75,179.5313 Q1501.4063,179.6875 1501.9688,179.9844 L1501.9688,182.7031 Q1501.3438,182.125 1500.75,181.8594 Q1500.1563,181.5781 1499.5313,181.5781 Q1498.1875,181.5781 1497.5,182.6563 Q1496.8125,183.7188 1496.8125,185.8125 Q1496.8125,187.9063 1497.5,188.9844 Q1498.1875,190.0469 1499.5313,190.0469 Q1500.1563,190.0469 1500.75,189.7813 Q1501.3438,189.5 1501.9688,188.9219 L1501.9688,191.6406 Z " fill="#000000"/><text fill="#000000" font-family="sans-serif" font-size="14" lengthAdjust="spacing" textLength="21.6631" x="1513" y="190.8467">jpg</text><line style="stroke:#181818;stroke-width:0.5;" x1="1485" x2="1536.6631" y1="202" y2="202"/><line style="stroke:#181818;stroke-width:0.5;" x1="1485" x2="1536.6631" y1="210" y2="210"/></g><!--class js--><g id="elem_js"><rect codeLine="66" fill="#F1F1F1" height="48" id="js" rx="2.5" ry="2.5" style="stroke:#181818;stroke-width:0.5;" width="43.1836" x="1336.5" y="170"/><ellipse cx="1351.5" cy="186" fill="#ADD1B2" rx="11" ry="11" style="stroke:#181818;stroke-width:1;"/><path d="M1354.4688,191.6406 Q1353.8906,191.9375 1353.25,192.0781 Q1352.6094,192.2344 1351.9063,192.2344 Q1349.4063,192.2344 1348.0781,190.5938 Q1346.7656,188.9375 1346.7656,185.8125 Q1346.7656,182.6875 1348.0781,181.0313 Q1349.4063,179.375 1351.9063,179.375 Q1352.6094,179.375 1353.25,179.5313 Q1353.9063,179.6875 1354.4688,179.9844 L1354.4688,182.7031 Q1353.8438,182.125 1353.25,181.8594 Q1352.6563,181.5781 1352.0313,181.5781 Q1350.6875,181.5781 1350,182.6563 Q1349.3125,183.7188 1349.3125,185.8125 Q1349.3125,187.9063 1350,188.9844 Q1350.6875,190.0469 1352.0313,190.0469 Q1352.6563,190.0469 1353.25,189.7813 Q1353.8438,189.5 1354.4688,188.9219 L1354.4688,191.6406 Z " fill="#000000"/><text fill="#000000" font-family="sans-serif" font-size="14" lengthAdjust="spacing" textLength="11.1836" x="1365.5" y="190.8467">js</text><line style="stroke:#181818;stroke-width:0.5;" x1="1337.5" x2="1378.6836" y1="202" y2="202"/><line style="stroke:#181818;stroke-width:0.5;" x1="1337.5" x2="1378.6836" y1="210" y2="210"/></g><!--class js--><g id="elem_js"><rect codeLine="67" fill="#F1F1F1" height="48" id="js" rx="2.5" ry="2.5" style="stroke:#181818;stroke-width:0.5;" width="43.1836" x="1236.5" y="170"/><ellipse cx="1251.5" cy="186" fill="#ADD1B2" rx="11" ry="11" style="stroke:#181818;stroke-width:1;"/><path d="M1254.4688,191.6406 Q1253.8906,191.9375 1253.25,192.0781 Q1252.6094,192.2344 1251.9063,192.2344 Q1249.4063,192.2344 1248.0781,190.5938 Q1246.7656,188.9375 1246.7656,185.8125 Q1246.7656,182.6875 1248.0781,181.0313 Q1249.4063,179.375 1251.9063,179.375 Q1252.6094,179.375 1253.25,179.5313 Q1253.9063,179.6875 1254.4688,179.9844 L1254.4688,182.7031 Q1253.8438,182.125 1253.25,181.8594 Q1252.6563,181.5781 1252.0313,181.5781 Q1250.6875,181.5781 1250,182.6563 Q1249.3125,183.7188 1249.3125,185.8125 Q1249.3125,187.9063 1250,188.9844 Q1250.6875,190.0469 1252.0313,190.0469 Q1252.6563,190.0469 1253.25,189.7813 Q1253.8438,189.5 1254.4688,188.9219 L1254.4688,191.6406 Z " fill="#000000"/><text fill="#000000" font-family="sans-serif" font-size="14" lengthAdjust="spacing" textLength="11.1836" x="1265.5" y="190.8467">js</text><line style="stroke:#181818;stroke-width:0.5;" x1="1237.5" x2="1278.6836" y1="202" y2="202"/><line style="stroke:#181818;stroke-width:0.5;" x1="1237.5" x2="1278.6836" y1="210" y2="210"/></g><!--class html--><g id="elem_html"><rect codeLine="69" fill="#F1F1F1" height="48" id="html" rx="2.5" ry="2.5" style="stroke:#181818;stroke-width:0.5;" width="63.8896" x="1092" y="170"/><ellipse cx="1107" cy="186" fill="#ADD1B2" rx="11" ry="11" style="stroke:#181818;stroke-width:1;"/><path d="M1109.9688,191.6406 Q1109.3906,191.9375 1108.75,192.0781 Q1108.1094,192.2344 1107.4063,192.2344 Q1104.9063,192.2344 1103.5781,190.5938 Q1102.2656,188.9375 1102.2656,185.8125 Q1102.2656,182.6875 1103.5781,181.0313 Q1104.9063,179.375 1107.4063,179.375 Q1108.1094,179.375 1108.75,179.5313 Q1109.4063,179.6875 1109.9688,179.9844 L1109.9688,182.7031 Q1109.3438,182.125 1108.75,181.8594 Q1108.1563,181.5781 1107.5313,181.5781 Q1106.1875,181.5781 1105.5,182.6563 Q1104.8125,183.7188 1104.8125,185.8125 Q1104.8125,187.9063 1105.5,188.9844 Q1106.1875,190.0469 1107.5313,190.0469 Q1108.1563,190.0469 1108.75,189.7813 Q1109.3438,189.5 1109.9688,188.9219 L1109.9688,191.6406 Z " fill="#000000"/><text fill="#000000" font-family="sans-serif" font-size="14" lengthAdjust="spacing" textLength="31.8896" x="1121" y="190.8467">html</text><line style="stroke:#181818;stroke-width:0.5;" x1="1093" x2="1154.8896" y1="202" y2="202"/><line style="stroke:#181818;stroke-width:0.5;" x1="1093" x2="1154.8896" y1="210" y2="210"/></g><!--class json--><g id="elem_json"><rect codeLine="72" fill="#F1F1F1" height="64.2969" id="json" rx="2.5" ry="2.5" style="stroke:#181818;stroke-width:0.5;" width="63.8848" x="941" y="162"/><ellipse cx="957.4682" cy="178" fill="#ADD1B2" rx="11" ry="11" style="stroke:#181818;stroke-width:1;"/><path d="M960.437,183.6406 Q959.8588,183.9375 959.2182,184.0781 Q958.5776,184.2344 957.8745,184.2344 Q955.3745,184.2344 954.0463,182.5938 Q952.7338,180.9375 952.7338,177.8125 Q952.7338,174.6875 954.0463,173.0313 Q955.3745,171.375 957.8745,171.375 Q958.5776,171.375 959.2182,171.5313 Q959.8745,171.6875 960.437,171.9844 L960.437,174.7031 Q959.812,174.125 959.2182,173.8594 Q958.6245,173.5781 957.9995,173.5781 Q956.6557,173.5781 955.9682,174.6563 Q955.2807,175.7188 955.2807,177.8125 Q955.2807,179.9063 955.9682,180.9844 Q956.6557,182.0469 957.9995,182.0469 Q958.6245,182.0469 959.2182,181.7813 Q959.812,181.5 960.437,180.9219 L960.437,183.6406 Z " fill="#000000"/><text fill="#000000" font-family="sans-serif" font-size="14" lengthAdjust="spacing" textLength="28.6221" x="971.7945" y="182.8467">json</text><line style="stroke:#181818;stroke-width:0.5;" x1="942" x2="1003.8848" y1="194" y2="194"/><text fill="#000000" font-family="sans-serif" font-size="14" lengthAdjust="spacing" textLength="51.8848" x="947" y="210.9951">&#171;class&#187;</text><line style="stroke:#181818;stroke-width:0.5;" x1="942" x2="1003.8848" y1="218.2969" y2="218.2969"/></g><!--class cs--><g id="elem_cs"><rect codeLine="75" fill="#F1F1F1" height="64.2969" id="cs" rx="2.5" ry="2.5" style="stroke:#181818;stroke-width:0.5;" width="63.8848" x="815" y="162"/><ellipse cx="837.6021" cy="178" fill="#ADD1B2" rx="11" ry="11" style="stroke:#181818;stroke-width:1;"/><path d="M840.5708,183.6406 Q839.9927,183.9375 839.3521,184.0781 Q838.7115,184.2344 838.0083,184.2344 Q835.5083,184.2344 834.1802,182.5938 Q832.8677,180.9375 832.8677,177.8125 Q832.8677,174.6875 834.1802,173.0313 Q835.5083,171.375 838.0083,171.375 Q838.7115,171.375 839.3521,171.5313 Q840.0083,171.6875 840.5708,171.9844 L840.5708,174.7031 Q839.9458,174.125 839.3521,173.8594 Q838.7583,173.5781 838.1333,173.5781 Q836.7896,173.5781 836.1021,174.6563 Q835.4146,175.7188 835.4146,177.8125 Q835.4146,179.9063 836.1021,180.9844 Q836.7896,182.0469 838.1333,182.0469 Q838.7583,182.0469 839.3521,181.7813 Q839.9458,181.5 840.5708,180.9219 L840.5708,183.6406 Z " fill="#000000"/><text fill="#000000" font-family="sans-serif" font-size="14" lengthAdjust="spacing" textLength="14.9912" x="853.2915" y="182.8467">cs</text><line style="stroke:#181818;stroke-width:0.5;" x1="816" x2="877.8848" y1="194" y2="194"/><text fill="#000000" font-family="sans-serif" font-size="14" lengthAdjust="spacing" textLength="51.8848" x="821" y="210.9951">&#171;class&#187;</text><line style="stroke:#181818;stroke-width:0.5;" x1="816" x2="877.8848" y1="218.2969" y2="218.2969"/></g><!--link Controllers to Entities--><g id="link_Controllers_Entities"><path codeLine="80" d="M290.9383,254.7133 C290.9126,254.9233 290.8869,255.1336 290.8612,255.3442 C290.7584,256.1864 290.6555,257.033 290.5526,257.8838 C289.7295,264.6898 288.9066,271.7583 288.1155,278.9328 C286.5331,293.2819 285.0775,308.055 284,322 C276.095,424.4 271.85,539.7625 269.5788,630.025 C269.0109,652.5906 268.5665,673.5875 268.219,692.4209 C268.1973,693.598 268.2844,688.7676 268.2634,689.9276 " fill="none" id="Controllers-to-Entities" style="stroke:#181818;stroke-width:1;"/><polygon fill="#181818" points="268.155,695.9267,272.317,687.0004,268.2454,690.9275,264.3183,686.8559,268.155,695.9267" style="stroke:#181818;stroke-width:1;"/></g><!--link Controllers to Services--><g id="link_Controllers_Services"><path codeLine="81" d="M299.2848,259.3063 C299.2865,259.696 299.2882,260.0866 299.29,260.4781 C299.2935,261.2611 299.2969,262.0479 299.3005,262.8381 C299.3075,264.4187 299.3145,266.0133 299.3217,267.6204 C299.3787,280.4773 299.4394,294.1347 299.5,307.7913 C299.5303,314.6195 299.5606,321.4476 299.5905,328.1753 C299.598,329.8572 299.6054,331.5328 299.6128,333.2006 C299.6165,334.0345 299.6202,334.8665 299.6239,335.6963 C299.6257,336.1112 299.6276,336.5255 299.6294,336.9393 C299.6303,337.1462 299.6046,331.353 299.6055,331.5596 " fill="none" id="Controllers-to-Services" style="stroke:#181818;stroke-width:1;"/><polygon fill="#181818" points="299.6322,337.5596,303.5922,328.5419,299.61,332.5596,295.5922,328.5774,299.6322,337.5596" style="stroke:#181818;stroke-width:1;"/></g><!--link Services to Data--><g id="link_Services_Data"><path codeLine="82" d="M300,486.3894 C300,486.7133 300,487.0377 300,487.3626 C300,489.9616 300,492.5902 300,495.2384 C300,500.5348 300,505.91 300,511.285 C300,513.9725 300,516.66 300,519.3375 C300,520.6763 300,522.0126 300,523.3452 C300,524.0115 300,524.6769 300,525.3412 C300,525.5073 300,519.6733 300,519.8392 " fill="none" id="Services-to-Data" style="stroke:#181818;stroke-width:1;"/><polygon fill="#181818" points="300,525.8392,304,516.8392,300,520.8392,296,516.8392,300,525.8392" style="stroke:#181818;stroke-width:1;"/></g><!--link Data to Entities--><g id="link_Data_Entities"><path codeLine="83" d="M291.8927,622.9771 C291.8539,623.084 291.8149,623.1913 291.7759,623.2989 C291.6979,623.514 291.6196,623.7304 291.541,623.9479 C290.9123,625.6878 290.2661,627.5022 289.6088,629.38 C284.35,644.4025 278.38,663.485 275,681 C274.4462,683.8675 273.9304,686.7853 273.4497,689.7363 C273.2094,691.2118 272.978,692.6956 272.755,694.1856 C272.6435,694.9306 272.5341,695.6771 272.4268,696.4249 C272.4,696.6119 273.2166,690.8585 273.19,691.0456 " fill="none" id="Data-to-Entities" style="stroke:#181818;stroke-width:1;"/><polygon fill="#181818" points="272.3468,696.986,277.5719,688.6375,273.0495,692.0357,269.6513,687.5132,272.3468,696.986" style="stroke:#181818;stroke-width:1;"/></g><!--SRC=[nLJBRi8m4BpdAonEhIho0GWX8T9M75fGGUhPILR1gMD7NjEqglZtsX30E2PjJ_N11y_EphwyDStUQ05a9Yl8fPekv-GhYeWvzGaHMadEGQ61I7ioJX794uZj6NTWU-x88sXhSNFhlK_pt7lVUOvV046zKysawFVl6698ny4xShlBH1EgQJT3AGgPf2lZX6NGYS049o3JQsd9AKNuIUHUQAOPX4lfkH-IUJuYYxGq2lFSWvvf1IEoqeg9meEMoeGw8edSfXn-K-A_w9f4hMzpUu1D8CZh4KxMYuvshq0mwnw1LwOtmSgwGO2cZEELObhsDOjWXzjH2NVusXorFwKxmZC5fXB1tzBg7fmFQ5qZQ6t2mxX4AGQEndYyDvfCeZExfIsLB1IjuWpx24QglbmK3yfyIn2vlosQfb5IQiVN4SaGlRGF8Q3-v80c00mqz4XcLH4c2zd4PLtqKCkmhAcNgLC0CF-OWmlvuyL43X_nHbVy7zhWRkFXS7BQ9ntWE8RHQHxjgrrJqNxHkUHl]--></g></svg>
